<?xml version="1.0" encoding="UTF-8" standalone="no"?>
<svg
   xmlns:dc="http://purl.org/dc/elements/1.1/"
   xmlns:cc="http://creativecommons.org/ns#"
   xmlns:rdf="http://www.w3.org/1999/02/22-rdf-syntax-ns#"
   xmlns:svg="http://www.w3.org/2000/svg"
   xmlns="http://www.w3.org/2000/svg"
   xmlns:sodipodi="http://sodipodi.sourceforge.net/DTD/sodipodi-0.dtd"
   xmlns:inkscape="http://www.inkscape.org/namespaces/inkscape"
   width="12.403247mm"
   height="13.212733mm"
   viewBox="0 0 12.403247 13.212733"
   version="1.1"
   id="svg8"
   inkscape:version="1.0.2-2 (e86c870879, 2021-01-15)"
   sodipodi:docname="HoardLogoTestPath25NoEye.svg">
  <defs
     id="defs2" />
  <sodipodi:namedview
     id="base"
     pagecolor="#ffffff"
     bordercolor="#666666"
     borderopacity="1.0"
     inkscape:pageopacity="0.0"
     inkscape:pageshadow="2"
     inkscape:zoom="13.761903"
     inkscape:cx="24.332539"
     inkscape:cy="25.285355"
     inkscape:document-units="mm"
     inkscape:current-layer="layer1"
     inkscape:document-rotation="0"
     showgrid="false"
     inkscape:window-width="2560"
     inkscape:window-height="1057"
     inkscape:window-x="1912"
     inkscape:window-y="-8"
     inkscape:window-maximized="1"
     inkscape:snap-to-guides="true"
     inkscape:snap-others="false"
     inkscape:object-nodes="false"
     inkscape:snap-nodes="false" />
  <metadata
     id="metadata5">
    <rdf:RDF>
      <cc:Work
         rdf:about="">
        <dc:format>image/svg+xml</dc:format>
        <dc:type
           rdf:resource="http://purl.org/dc/dcmitype/StillImage" />
        <dc:title />
      </cc:Work>
    </rdf:RDF>
  </metadata>
  <g
     inkscape:label="Layer 1"
     inkscape:groupmode="layer"
     id="layer1"
     transform="translate(-93.414228,-153.40395)">
    <g
       id="g859"
       transform="matrix(0.07459291,0,0,0.07459291,92.17385,148.06708)">
      <g
         id="g837">
        <g
           id="g885"
           style="stroke-width:2.646;stroke-miterlimit:4;stroke-dasharray:none">
          <path
             style="color:#000000;font-style:normal;font-variant:normal;font-weight:normal;font-stretch:normal;font-size:medium;line-height:normal;font-family:sans-serif;font-variant-ligatures:normal;font-variant-position:normal;font-variant-caps:normal;font-variant-numeric:normal;font-variant-alternates:normal;font-variant-east-asian:normal;font-feature-settings:normal;font-variation-settings:normal;text-indent:0;text-align:start;text-decoration:none;text-decoration-line:none;text-decoration-style:solid;text-decoration-color:#000000;letter-spacing:normal;word-spacing:normal;text-transform:none;writing-mode:lr-tb;direction:ltr;text-orientation:mixed;dominant-baseline:auto;baseline-shift:baseline;text-anchor:start;white-space:normal;shape-padding:0;shape-margin:0;inline-size:0;clip-rule:nonzero;display:inline;overflow:visible;visibility:visible;opacity:1;isolation:auto;mix-blend-mode:normal;color-interpolation:sRGB;color-interpolation-filters:linearRGB;solid-color:#000000;solid-opacity:1;vector-effect:none;fill:#ffffff;fill-opacity:1;fill-rule:nonzero;stroke:none;stroke-linecap:round;stroke-linejoin:round;stroke-miterlimit:4;stroke-dasharray:none;stroke-dashoffset:0;stroke-opacity:1;color-rendering:auto;image-rendering:auto;shape-rendering:auto;text-rendering:auto;enable-background:accumulate;stop-color:#000000;stop-opacity:1"
             d="M 175.61444,71.58497 C 95.51235,70.223998 41.138138,105.42993 25.098623,126.78514 c -8.756225,11.65815 -9.219813,21.8451 -7.938467,31.29997 8.005336,-7.75219 20.319558,-16.61521 29.13086,-8.44839 5.769788,5.34777 9.446653,17.73338 7.097656,31.41797 -12.74655,12.15627 -18.397792,28.14202 -12.402344,45.26758 3.284298,9.38135 11.349,15.01925 19.59961,17.73632 7.421877,2.44416 14.962283,2.69042 20.816406,1.03125 3.513815,2.83593 7.796033,3.87053 11.769531,3.52344 4.239289,-0.3703 8.135705,-2.05284 11.398435,-4.12305 9.0565,-0.9155 14.82757,-3.38776 18.10938,-6.85351 3.37289,-3.56194 2.2066,-10.56944 0.89648,-11.69922 -4.64553,-1.59902 -10.31113,-0.74656 -14.5,-2.73633 -1.1533,-0.54783 -1.7242,-1.90648 -2.64024,-2.53112 -2.28927,-1.56104 -5.11693,-1.7429 -7.56093,-2.33802 -11.418564,-3.69648 -21.225131,-15.74776 -23.149739,-24.56055 -7.084517,10.49498 -8.239252,18.24202 -3.363135,28.0528 -8.99332,-0.62682 -13.22128,-12.80533 -6.946105,-20.90631 -1.975788,-7.10118 3.579484,-10.27068 7.353906,-11.22786 0,0 -1.124674,-4.46761 1.48321,-8.5752 2.607885,-4.10759 8.256666,-5.90121 8.256666,-5.90121 l -4.219807,-4.98025 3.778368,-4.34283 3.389451,2.7301 8.905709,-10.4778 -3.762794,-3.8289 8.059434,-7.05035 3.120946,2.61022 5.4588,-3.7246 4.411,5.5011 7.17918,1.04883 4.6773,-5.13637 4.41065,0.67256 1.05973,5.27359 6.58084,-0.70431 2.05188,6.03549 c 0,0 5.37605,-0.36009 7.79578,2.62662 2.41973,2.98671 0.97997,8.23379 0.97997,8.23379 0,0 4.81141,0.32805 6.12626,2.76689 1.31484,2.43885 -0.37475,6.5703 -0.37475,6.5703 l 3.36625,3.46171 -3.39265,9.28371 c -0.32734,1.0808 -0.0806,2.25392 0.65429,3.11133 7.55391,8.81342 12.26432,21.49531 1.01044,25.56179 -11.25389,4.06647 -17.71891,-8.54821 -15.34631,-22.10184 -23.50757,21.63621 -7.53307,52.20049 20.45111,47.70607 34.41521,-5.52728 26.19638,-53.266 9.31167,-56.62363 -3.20252,-0.22297 -2.12296,7.46498 0.0868,9.38992 11.70135,10.19327 10.83087,36.74362 -11.32778,40.04418 -15.47065,2.30437 -28.13323,-12.16112 -22.67716,-24.4119 1.70557,11.4867 12.51899,16.4766 21.23541,13.61705 18.4452,-6.05122 12.35659,-27.5399 3.41211,-35.95508 l 3.17043,-10.65462 -3.43411,-4.24381 c 0,0 0.92444,-3.75995 -0.14818,-7.10259 -1.07262,-3.34263 -5.79322,-5.1689 -5.79322,-5.1689 0,0 1.0386,-4.55325 -2.44727,-7.96679 -3.48587,-3.41354 -7.72265,-3.06641 -7.72265,-3.06641 l -2.51973,-7.40787 -6.79924,0.80859 -1.10709,-4.63363 -9.75949,-1.53272 -5.2517,5.15608 -3.21076,-0.30053 -5.39547,-7.39817 -5.61082,3.35512 -4.709626,-3.69784 -15.38322,15.67872 3.655381,3.79014 -2.655322,2.83745 -2.785059,-2.3756 -10.083657,11.37202 3.928217,4.21484 c -4.64813,1.66336 -7.105548,6.23208 -6.687421,11.33457 -2.993313,0.889 -5.714711,2.68414 -7.609375,5.31445 -2.167716,3.00939 -2.925748,7.20323 -1.673828,11.49219 -2.88518,5.72989 -3.23431,13.03218 0.533203,18.37695 3.760711,5.33512 9.484886,8.29988 20.539134,5.61562 -3.947043,-6.88565 -5.156306,-11.41033 -3.819063,-17.5611 4.141344,9.85285 14.874427,16.46805 26.631496,17.96111 5.44122,5.00891 14.24537,2.92629 14.84148,5.036 1.29189,4.57215 -9.04221,6.69887 -15.03595,7.60199 -6.901614,3.82491 -13.839516,3.64813 -20.015297,-0.47367 -44.077305,5.55472 -44.042003,-39.48754 -22.819979,-54.68049 3.133691,-12.99844 0.101317,-31.19986 -8.917524,-38.97992 -8.929222,-7.70275 -18.703251,-5.6266 -26.658203,0.9707 0.965864,-5.22415 3.135345,-10.54667 6.269531,-14.375 14.133018,-17.26312 55.59762,-49.117165 123.023442,-53.01172 -13.86872,5.006428 -17.4416,12.577703 -16.01764,23.36232 -12.44836,1.10231 -18.86533,10.01109 -17.80674,21.81257 -4.05336,0.17065 -10.29296,2.65032 -12.02775,7.75723 -0.74569,2.19521 5.08027,5.52658 8.85545,4.39335 2.29809,-0.68984 4.63871,-7.14135 12.5257,-7.31484 -7.47072,-15.87825 10.40227,-21.50012 17.51002,-21.77511 -11.78337,-17.237584 19.01173,-31.67254 29.11444,-35.0568 z"
             id="path40"
             sodipodi:nodetypes="cscscsscscscssccccczcccccccccccccccczczcccczcscsscsccczczcccccccccccccccccscscccscccscscccssccc" />
        </g>
      </g>
    </g>
  </g>
</svg>
