<?xml version="1.0" encoding="UTF-8" standalone="no"?>
<!-- Generator: Adobe Illustrator 19.0.0, SVG Export Plug-In . SVG Version: 6.00 Build 0)  -->

<svg
   xmlns:osb="http://www.openswatchbook.org/uri/2009/osb"
   xmlns:dc="http://purl.org/dc/elements/1.1/"
   xmlns:cc="http://creativecommons.org/ns#"
   xmlns:rdf="http://www.w3.org/1999/02/22-rdf-syntax-ns#"
   xmlns:svg="http://www.w3.org/2000/svg"
   xmlns="http://www.w3.org/2000/svg"
   xmlns:xlink="http://www.w3.org/1999/xlink"
   xmlns:sodipodi="http://sodipodi.sourceforge.net/DTD/sodipodi-0.dtd"
   xmlns:inkscape="http://www.inkscape.org/namespaces/inkscape"
   version="1.1"
   id="Layer_1"
   x="0px"
   y="0px"
   viewBox="0 0 512.004 512.004"
   style="enable-background:new 0 0 512.004 512.004;"
   xml:space="preserve"
   sodipodi:docname="dragonwhite.svg"
   inkscape:version="0.92.4 (5da689c313, 2019-01-14)"><metadata
   id="metadata65"><rdf:RDF><cc:Work
       rdf:about=""><dc:format>image/svg+xml</dc:format><dc:type
         rdf:resource="http://purl.org/dc/dcmitype/StillImage" /><dc:title></dc:title></cc:Work></rdf:RDF></metadata><defs
   id="defs63"><linearGradient
     id="linearGradient4577"
     osb:paint="solid"><stop
       style="stop-color:#ffffff;stop-opacity:1;"
       offset="0"
       id="stop4575" /></linearGradient><linearGradient
     inkscape:collect="always"
     xlink:href="#linearGradient4577"
     id="linearGradient4579"
     x1="-0.001"
     y1="256.00209"
     x2="512.00388"
     y2="256.00209"
     gradientUnits="userSpaceOnUse" /></defs><sodipodi:namedview
   pagecolor="#ffffff"
   bordercolor="#666666"
   borderopacity="1"
   objecttolerance="10"
   gridtolerance="10"
   guidetolerance="10"
   inkscape:pageopacity="0"
   inkscape:pageshadow="2"
   inkscape:window-width="1920"
   inkscape:window-height="1001"
   id="namedview61"
   showgrid="false"
   inkscape:zoom="0.46093387"
   inkscape:cx="256.00201"
   inkscape:cy="256.00201"
   inkscape:window-x="2091"
   inkscape:window-y="870"
   inkscape:window-maximized="1"
   inkscape:current-layer="g28" />
<g
   id="g28">
	<g
   id="g26"
   style="fill-opacity:1;fill:url(#linearGradient4579)">
		<g
   id="g24"
   style="fill-opacity:1;fill:url(#linearGradient4579)">
			<path
   d="M358.334,126.849c-0.58-4.668-4.804-7.996-9.523-7.407c-2.739,0.341-61.926,8.482-92.809,71.279     c-30.882-62.797-90.069-70.938-92.809-71.279c-4.693-0.614-8.917,2.722-9.506,7.381c-0.606,4.668,2.705,8.934,7.364,9.549     c2.577,0.333,63.36,9.079,86.852,79.565c1.161,3.49,4.42,5.837,8.098,5.837s6.929-2.347,8.098-5.837     c23.492-70.485,84.275-79.232,86.827-79.565C355.603,135.792,358.923,131.526,358.334,126.849z"
   id="path2"
   style="fill-opacity:1;fill:url(#linearGradient4579)" />
			<path
   d="M79.661,217.806c-11.213,2.014-25.156,3.968-36.992,3.968c-3.072,0-5.914,1.655-7.424,4.326     c-1.519,2.68-1.476,5.965,0.111,8.602c27.221,45.38,72.013,54.793,73.907,55.177c4.608,0.896,9.088-2.065,10.018-6.673     c0.939-4.608-2.039-9.114-6.647-10.061c-0.35-0.068-31.019-6.707-54.161-35.123c22.451-2.133,44.843-7.68,46.003-7.97     c3.456-0.862,6.016-3.797,6.409-7.347s-1.476-6.963-4.668-8.567c-0.418-0.205-36.77-18.688-62.14-54.852     c22.793,6.033,46.788,10.854,48.12,11.128c3.396,0.7,6.835-0.76,8.755-3.618s1.929-6.605,0.026-9.481     c-0.273-0.41-23.629-36.258-20.011-75.972c19.115,22.537,43.699,28.928,44.962,29.244c3.413,0.845,6.98-0.461,9.02-3.32     c0.401-0.555,40.747-56.158,95.454-56.158c2.688,0,5.214-1.263,6.827-3.413l18.773-25.028l18.773,25.028     c1.613,2.15,4.147,3.413,6.827,3.413c54.528,0,95.061,55.603,95.454,56.166c2.048,2.842,5.598,4.147,9.011,3.311     c1.271-0.316,25.847-6.707,44.971-29.244c3.618,39.714-19.738,75.563-20.011,75.972c-1.903,2.876-1.894,6.622,0.026,9.481     c1.929,2.867,5.402,4.275,8.755,3.618c1.331-0.273,25.31-5.086,48.102-11.128c-25.327,36.036-61.705,54.647-62.131,54.861     c-3.089,1.553-4.932,4.804-4.685,8.243c0.247,3.439,2.543,6.391,5.811,7.484c0.922,0.307,19.61,6.443,46.43,8.388     c-23.117,28.211-53.615,34.816-53.965,34.884c-4.608,0.939-7.595,5.427-6.673,10.035c0.811,4.053,4.378,6.861,8.363,6.861     c0.546,0,1.118-0.051,1.681-0.162c1.894-0.384,46.686-9.796,73.907-55.177c1.587-2.637,1.63-5.922,0.111-8.602     c-1.519-2.671-4.352-4.326-7.424-4.326c-14.669,0-27.759-1.664-37.692-3.482c18.074-12.484,45.397-35.524,62.396-69.504     c1.536-3.089,1.067-6.801-1.186-9.404c-2.261-2.603-5.88-3.61-9.148-2.509c-14.455,4.821-34.765,9.702-49.271,12.945     c9.429-20.352,21.06-56.286,8.858-92.877c-1.092-3.277-4.036-5.572-7.484-5.82c-3.558-0.213-6.699,1.613-8.243,4.702     c-11.273,22.545-31.206,32.734-40.55,36.446c-11.947-14.711-49.843-55.902-101.069-58.138L262.829,3.321     c-3.217-4.301-10.436-4.301-13.653,0l-23.108,30.814c-51.226,2.236-89.131,43.426-101.086,58.129     c-9.353-3.712-29.278-13.901-40.55-36.437c-1.545-3.098-4.804-4.924-8.235-4.702c-3.439,0.247-6.4,2.543-7.492,5.82     c-12.194,36.591-0.563,72.525,8.866,92.877c-14.507-3.243-34.807-8.124-49.271-12.945c-3.268-1.092-6.878-0.102-9.139,2.509     c-2.27,2.603-2.731,6.315-1.195,9.404C34.741,182.333,61.596,205.22,79.661,217.806z"
   id="path4"
   style="fill-opacity:1;fill:url(#linearGradient4579)" />
			<path
   d="M170.669,200.441c0,7.057,5.743,12.8,12.8,12.8s12.8-5.743,12.8-12.8s-5.743-12.8-12.8-12.8     S170.669,193.384,170.669,200.441z"
   id="path6"
   style="fill-opacity:1;fill:url(#linearGradient4579)" />
			<path
   d="M234.199,92.341c3.917,2.62,9.216,1.553,11.836-2.364l9.967-14.95l9.967,14.95c1.638,2.466,4.352,3.797,7.108,3.797     c1.621,0,3.268-0.461,4.727-1.434c3.925-2.611,4.983-7.91,2.364-11.836l-17.067-25.6c-3.166-4.745-11.034-4.745-14.199,0     l-17.067,25.6C229.225,84.43,230.283,89.729,234.199,92.341z"
   id="path8"
   style="fill-opacity:1;fill:url(#linearGradient4579)" />
			<path
   d="M234.199,143.541c3.917,2.611,9.216,1.553,11.836-2.364l9.967-14.95l9.967,14.95c1.638,2.466,4.352,3.797,7.108,3.797     c1.621,0,3.268-0.461,4.727-1.434c3.925-2.611,4.983-7.91,2.364-11.836l-17.067-25.6c-3.166-4.745-11.034-4.745-14.199,0     l-17.067,25.6C229.225,135.63,230.283,140.929,234.199,143.541z"
   id="path10"
   style="fill-opacity:1;fill:url(#linearGradient4579)" />
			<path
   d="M315.735,200.441c0,7.057,5.743,12.8,12.8,12.8s12.8-5.743,12.8-12.8s-5.743-12.8-12.8-12.8     S315.735,193.384,315.735,200.441z"
   id="path12"
   style="fill-opacity:1;fill:url(#linearGradient4579)" />
			<path
   d="M509.502,343.741c-3.336-3.337-8.73-3.337-12.066,0c-0.111,0.119-11.622,11.196-26.368,10.385     c-10.155-0.563-19.985-6.69-29.201-18.21c-20.386-25.481-43.563-37.06-67.337-42.146c0.555-1.135,0.939-2.372,0.939-3.729     c0-16.998-7.245-25.037-13.321-28.792c-13.474-8.32-32.683-3.012-43.102,0.998c-8.03-11.196-27.682-31.94-63.044-31.94     c-35.362,0-55.014,20.745-63.044,31.94c-10.411-4.002-29.594-9.327-43.102-0.998c-6.076,3.755-13.321,11.793-13.321,28.792     c0,1.357,0.384,2.594,0.947,3.729c-23.782,5.086-46.959,16.666-67.345,42.146c-9.173,11.46-18.953,17.587-29.065,18.202     c-14.814,0.862-26.419-10.291-26.505-10.377c-3.337-3.337-8.73-3.337-12.066,0c-3.336,3.336-3.336,8.73,0,12.066     c0.657,0.657,15.676,15.428,36.864,15.428c0.819,0,1.664-0.026,2.509-0.068c15.215-0.845,29.21-9.114,41.591-24.593     c11.418-14.268,23.748-23.595,37.214-29.577c3.866,25.259,19.106,95.659,71.356,125.517c1.331,0.768,2.79,1.126,4.224,1.126     c2.961,0,5.845-1.544,7.415-4.301c2.338-4.087,0.922-9.301-3.174-11.639c-47.479-27.136-60.587-96.913-63.36-116.284     c12.979-3.234,26.94-4.309,42.061-4.309c4.71,0,8.533-3.823,8.533-8.533s-3.823-8.533-8.533-8.533     c-8.567,0-17.22,0.324-25.847,1.246c0.06-0.427,0.247-0.802,0.247-1.246c0-7.322,1.758-12.126,5.214-14.268     c8.021-4.975,26.138,1.109,33.647,4.838c4.224,2.116,9.335,0.384,11.435-3.823c0.154-0.29,15.138-29.414,52.105-29.414     c36.608,0,51.499,28.254,52.096,29.414c2.108,4.216,7.228,5.897,11.443,3.823c7.509-3.729,25.6-9.813,33.647-4.838     c3.456,2.142,5.214,6.946,5.214,14.268c0,0.444,0.179,0.819,0.247,1.246c-8.627-0.922-17.28-1.246-25.847-1.246     c-4.719,0-8.533,3.823-8.533,8.533s3.814,8.533,8.533,8.533c15.121,0,29.073,1.075,42.061,4.309     c-2.782,19.371-15.881,89.148-63.36,116.284c-4.096,2.338-5.521,7.552-3.174,11.639c1.57,2.756,4.446,4.301,7.415,4.301     c1.434,0,2.893-0.358,4.224-1.126c52.258-29.858,67.482-100.258,71.356-125.517c13.466,5.982,25.796,15.309,37.214,29.577     c12.382,15.479,26.377,23.748,41.591,24.593c0.845,0.043,1.681,0.068,2.517,0.068c21.18,0,36.207-14.771,36.855-15.428     C512.838,352.471,512.838,347.078,509.502,343.741z"
   id="path14"
   style="fill-opacity:1;fill:url(#linearGradient4579)" />
			<path
   d="M289.965,385.58c0.93-4.617-2.074-9.114-6.69-10.035c-4.617-0.922-9.122,2.065-10.035,6.69     c-7.211,36.019-2.765,66.389,8.363,99.627c-5.982-5.803-12.425-13.884-17.963-24.969c-2.893-5.786-12.382-5.786-15.275,0     c-5.538,11.093-11.989,19.174-17.963,24.977c11.119-33.246,15.573-63.616,8.363-99.635c-0.913-4.625-5.41-7.629-10.035-6.69     c-4.625,0.922-7.62,5.419-6.699,10.035c8.149,40.747,0.077,72.883-16.623,114.62c-1.229,3.089-0.563,6.613,1.715,9.028     c2.278,2.415,5.743,3.294,8.909,2.244c1.024-0.341,22.315-7.706,39.97-33.852c17.655,26.146,38.938,33.51,39.97,33.852     c0.879,0.29,1.801,0.435,2.697,0.435c2.304,0,4.565-0.939,6.212-2.679c2.278-2.415,2.944-5.939,1.715-9.028     C289.897,458.463,281.815,426.327,289.965,385.58z"
   id="path16"
   style="fill-opacity:1;fill:url(#linearGradient4579)" />
			<path
   d="M175.004,317.006c-0.478-0.29-0.93-0.58-1.459-0.777c-0.597-0.222-1.203-0.29-1.826-0.367     c-0.358-0.043-0.683-0.213-1.05-0.213h-0.009c-0.137,0-0.247,0.068-0.375,0.077c-0.631,0.026-1.22,0.205-1.835,0.367     c-0.469,0.128-0.956,0.213-1.391,0.418c-0.478,0.222-0.87,0.563-1.306,0.879c-0.478,0.35-0.964,0.666-1.357,1.101     c-0.094,0.111-0.23,0.154-0.316,0.265c-0.256,0.307-0.341,0.683-0.546,1.015c-0.316,0.503-0.623,0.99-0.828,1.553     c-0.205,0.563-0.265,1.143-0.35,1.732c-0.051,0.384-0.222,0.725-0.222,1.118c0,2.304,0.444,56.695,38.852,75.904     c1.203,0.597,2.517,0.896,3.814,0.896c1.903,0,3.797-0.64,5.333-1.877c2.603-2.082,3.755-5.495,2.944-8.73     c-4.079-16.324-3.874-26.829-2.944-33.016c15.514,6.135,31.258,9.489,45.867,9.489c14.524,0,30.268-3.371,45.85-9.574     c0.947,6.229,1.161,16.751-2.927,33.101c-0.802,3.234,0.333,6.647,2.935,8.73c1.553,1.237,3.439,1.877,5.342,1.877     c1.297,0,2.611-0.299,3.814-0.896c38.409-19.209,38.852-73.6,38.852-75.904c0-0.393-0.171-0.725-0.222-1.101     c-0.077-0.589-0.145-1.161-0.341-1.732c-0.205-0.555-0.512-1.041-0.819-1.544c-0.205-0.324-0.273-0.7-0.529-1.007     c-0.094-0.119-0.239-0.162-0.341-0.282c-0.401-0.444-0.879-0.768-1.374-1.126c-0.418-0.307-0.802-0.64-1.263-0.853     c-0.469-0.222-0.981-0.316-1.493-0.452c-0.572-0.154-1.126-0.316-1.715-0.35c-0.154-0.009-0.282-0.085-0.435-0.085     c-0.401,0-0.734,0.179-1.118,0.222c-0.58,0.085-1.143,0.145-1.698,0.35c-0.58,0.205-1.075,0.503-1.587,0.828     c-0.324,0.196-0.683,0.273-0.981,0.512c-19.166,15.573-50.236,32.222-79.949,32.222c-25.54,0-55.415-12.032-79.915-32.188     C175.763,317.313,175.362,317.22,175.004,317.006z M330.66,342.273c-1.809,8.832-5.137,19.439-11.324,28.348     c0.538-9.25-0.367-16.026-1.57-20.821C322.135,347.496,326.428,344.987,330.66,342.273z M194.229,349.911     c-1.186,4.762-2.091,11.477-1.562,20.651c-6.11-8.849-9.429-19.354-11.255-28.151     C185.611,345.115,189.886,347.624,194.229,349.911z"
   id="path18"
   style="fill-opacity:1;fill:url(#linearGradient4579)" />
			<path
   d="M290.135,290.041v-8.533c0-4.71-3.814-8.533-8.533-8.533c-4.719,0-8.533,3.823-8.533,8.533v8.533     c0,4.71,3.814,8.533,8.533,8.533C286.321,298.574,290.135,294.751,290.135,290.041z"
   id="path20"
   style="fill-opacity:1;fill:url(#linearGradient4579)" />
			<path
   d="M238.935,290.041v-8.533c0-4.71-3.823-8.533-8.533-8.533s-8.533,3.823-8.533,8.533v8.533c0,4.71,3.823,8.533,8.533,8.533     S238.935,294.751,238.935,290.041z"
   id="path22"
   style="fill-opacity:1;fill:url(#linearGradient4579)" />
		</g>
	</g>
</g>
<g
   id="g30">
</g>
<g
   id="g32">
</g>
<g
   id="g34">
</g>
<g
   id="g36">
</g>
<g
   id="g38">
</g>
<g
   id="g40">
</g>
<g
   id="g42">
</g>
<g
   id="g44">
</g>
<g
   id="g46">
</g>
<g
   id="g48">
</g>
<g
   id="g50">
</g>
<g
   id="g52">
</g>
<g
   id="g54">
</g>
<g
   id="g56">
</g>
<g
   id="g58">
</g>
</svg>